<svg width="162" height="32" viewBox="0 0 162 32" fill="none" xmlns="http://www.w3.org/2000/svg">
<path d="M33.9697 3.2024C31.3576 1.99209 28.5835 1.11 25.6878 0.617676C25.3233 1.25361 24.9183 2.11517 24.6348 2.79213C21.555 2.34082 18.4974 2.34082 15.46 2.79213C15.1765 2.11517 14.7513 1.25361 14.407 0.617676C11.4912 1.11 8.7171 1.99209 6.12321 3.2024C0.878721 11.0386 -0.538715 18.6902 0.170001 26.2392C3.65283 28.8034 7.0142 30.3625 10.3168 31.3883C11.1268 30.2805 11.8557 29.0906 12.4835 27.8394C11.2888 27.388 10.1548 26.8341 9.06138 26.1777C9.34487 25.9727 9.62837 25.747 9.8916 25.5213C16.4928 28.5779 23.6427 28.5779 30.1628 25.5213C30.4463 25.747 30.7096 25.9727 30.9931 26.1777C29.8996 26.8341 28.7657 27.388 27.571 27.8394C28.1987 29.0906 28.9277 30.2805 29.7376 31.3883C33.0382 30.3625 36.4198 28.8034 39.8844 26.2392C40.755 17.5005 38.5054 9.91044 33.9697 3.2024ZM13.3947 21.5826C11.4102 21.5826 9.79031 19.757 9.79031 17.521C9.79031 15.285 11.3697 13.4592 13.3947 13.4592C15.3993 13.4592 17.0394 15.285 16.9989 17.521C16.9989 19.757 15.3993 21.5826 13.3947 21.5826ZM26.7003 21.5826C24.7158 21.5826 23.0939 19.757 23.0939 17.521C23.0939 15.285 24.6753 13.4592 26.7003 13.4592C28.705 13.4592 30.3451 15.285 30.3046 17.521C30.3046 19.757 28.7252 21.5826 26.7003 21.5826Z" fill="white"/>
<path d="M53.9169 7.05811H62.5248C64.5902 7.05811 66.3518 7.38627 67.7896 8.04274C69.2272 8.69922 70.3004 9.60186 71.0092 10.7711C71.7178 11.9404 72.0823 13.2737 72.0823 14.7918C72.0823 16.2687 71.7179 17.6022 70.9687 18.8124C70.2194 20.0023 69.0856 20.9663 67.5668 21.6638C66.0482 22.3613 64.1649 22.7101 61.9173 22.7101H53.9169V7.05811ZM61.8161 18.7304C63.2132 18.7304 64.2864 18.3816 65.0357 17.6637C65.7849 16.9662 66.1697 15.9815 66.1697 14.7713C66.1697 13.643 65.8254 12.7403 65.1572 12.0635C64.4889 11.3865 63.4766 11.0378 62.1198 11.0378H59.4267V18.7304H61.8161Z" fill="white"/>
<path d="M85.4892 22.6907C84.2945 22.383 83.2213 21.9316 82.2696 21.3162V17.6032C82.9986 18.1776 83.9502 18.6289 85.1652 18.9982C86.3801 19.3674 87.5546 19.5521 88.6886 19.5521C89.215 19.5521 89.6199 19.4905 89.8832 19.3469C90.1464 19.2033 90.2882 19.0392 90.2882 18.8341C90.2882 18.6084 90.2072 18.4238 90.0655 18.2802C89.9237 18.1365 89.6402 18.0135 89.215 17.8904L86.5623 17.2956C85.0437 16.9468 83.9705 16.434 83.3225 15.8185C82.6746 15.2031 82.3708 14.3621 82.3708 13.3364C82.3708 12.4748 82.6543 11.7158 83.201 11.0799C83.768 10.4439 84.5577 9.95158 85.5905 9.60283C86.6231 9.25421 87.8178 9.06958 89.215 9.06958C90.4502 9.06958 91.5841 9.19267 92.6168 9.47987C93.6494 9.74643 94.4999 10.0952 95.1682 10.5055V14.0134C94.4797 13.6031 93.6698 13.2748 92.7788 13.0287C91.8676 12.7825 90.9362 12.6594 89.9844 12.6594C88.6074 12.6594 87.9191 12.9056 87.9191 13.3774C87.9191 13.6031 88.0203 13.7672 88.2431 13.8903C88.4658 14.0134 88.8504 14.1159 89.4174 14.239L91.6246 14.6493C93.0623 14.8954 94.1354 15.3467 94.8442 15.9826C95.5529 16.6186 95.8972 17.5416 95.8972 18.793C95.8972 20.147 95.3099 21.2341 94.1354 22.0137C92.9611 22.8138 91.3006 23.2034 89.1542 23.2034C87.8988 23.1624 86.6838 22.9983 85.4892 22.6907Z" fill="white"/>
<path d="M101.366 22.2193C100.111 21.5834 99.139 20.7424 98.5113 19.6757C97.8633 18.6089 97.5595 17.3986 97.5595 16.0447C97.5595 14.7114 97.8835 13.501 98.5518 12.4549C99.22 11.3881 100.192 10.5675 101.468 9.95221C102.743 9.35728 104.282 9.04956 106.064 9.04956C108.271 9.04956 110.094 9.5214 111.552 10.4649V14.5472C111.045 14.1985 110.438 13.8908 109.749 13.6856C109.061 13.46 108.332 13.3574 107.563 13.3574C106.186 13.3574 105.133 13.6036 104.343 14.1164C103.573 14.6293 103.189 15.2858 103.189 16.1062C103.189 16.9063 103.553 17.5628 104.323 18.0756C105.072 18.5884 106.165 18.8551 107.583 18.8551C108.312 18.8551 109.041 18.7525 109.749 18.5268C110.458 18.3012 111.086 18.0551 111.592 17.7269V21.686C109.972 22.6707 108.089 23.163 105.963 23.163C104.161 23.163 102.642 22.8348 101.366 22.2193Z" fill="white"/>
<path d="M117.325 22.2193C116.049 21.5834 115.077 20.7424 114.409 19.6551C113.741 18.5679 113.396 17.3576 113.396 16.0036C113.396 14.6703 113.741 13.46 114.409 12.4138C115.077 11.3676 116.049 10.547 117.304 9.95221C118.56 9.35728 120.078 9.04956 121.822 9.04956C123.563 9.04956 125.082 9.33677 126.338 9.95221C127.593 10.547 128.565 11.3676 129.233 12.4138C129.901 13.46 130.225 14.6498 130.225 16.0036C130.225 17.3371 129.901 18.5679 129.233 19.6551C128.565 20.7424 127.613 21.6039 126.338 22.2193C125.062 22.8348 123.563 23.163 121.822 23.163C120.099 23.163 118.6 22.8348 117.325 22.2193ZM124.029 18.2601C124.556 17.7269 124.839 16.9884 124.839 16.1062C124.839 15.2037 124.576 14.5062 124.029 13.9728C123.482 13.4394 122.753 13.1728 121.842 13.1728C120.891 13.1728 120.159 13.4394 119.613 13.9728C119.086 14.5062 118.803 15.2037 118.803 16.1062C118.803 17.0089 119.066 17.7269 119.613 18.2601C120.159 18.814 120.891 19.0807 121.842 19.0807C122.753 19.0602 123.503 18.7935 124.029 18.2601Z" fill="white"/>
<path d="M143.772 9.86919V14.69C143.205 14.3207 142.476 14.1361 141.585 14.1361C140.411 14.1361 139.499 14.5054 138.872 15.2233C138.243 15.9413 137.919 17.0696 137.919 18.5875V22.6904H132.513V9.64353H137.819V13.8079C138.102 12.2898 138.588 11.1616 139.236 10.4436C139.884 9.72558 140.735 9.33594 141.767 9.33594C142.536 9.33594 143.205 9.52057 143.772 9.86919Z" fill="white"/>
<path d="M162 6.60742V22.7106H156.594V19.7772C156.127 20.885 155.439 21.7261 154.507 22.3003C153.575 22.8748 152.42 23.162 151.043 23.162C149.828 23.162 148.755 22.8542 147.843 22.2593C146.933 21.6645 146.225 20.8234 145.739 19.7772C145.253 18.7105 145.01 17.5207 145.01 16.2079C144.989 14.8334 145.253 13.6026 145.799 12.5154C146.325 11.4282 147.095 10.5871 148.067 9.97166C149.039 9.35622 150.152 9.0485 151.407 9.0485C153.98 9.0485 155.703 10.1768 156.594 12.4538V6.60742H162ZM155.784 18.1566C156.33 17.6233 156.613 16.9052 156.613 16.0438C156.613 15.2026 156.351 14.5257 155.803 14.0129C155.257 13.5001 154.528 13.2334 153.615 13.2334C152.703 13.2334 151.974 13.5001 151.428 14.0334C150.881 14.5667 150.618 15.2437 150.618 16.1053C150.618 16.9668 150.881 17.6438 151.428 18.1771C151.974 18.7105 152.684 18.9772 153.594 18.9772C154.507 18.9772 155.236 18.7105 155.784 18.1566Z" fill="white"/>
<path d="M77.0656 10.4238C78.6186 10.4238 79.8802 9.27566 79.8802 7.85962C79.8802 6.44336 78.6186 5.29541 77.0656 5.29541C75.5104 5.29541 74.251 6.44336 74.251 7.85962C74.251 9.27566 75.5104 10.4238 77.0656 10.4238Z" fill="white"/>
<path d="M79.8802 12.1868C78.159 12.9457 76.0126 12.9662 74.251 12.1868V22.7103H79.8802V12.1868Z" fill="white"/>
</svg>
